<svg t="1717666215184" class="icon" viewBox="0 0 1024 1024" version="1.1" xmlns="http://www.w3.org/2000/svg"
    p-id="14547" width="200" height="200">
    <path
        d="M952.32 158.72v184.32h30.72c20.48 0 40.96 20.48 40.96 40.96s-20.48 40.96-40.96 40.96h-97.28c30.72 51.2 30.72 122.88 0 184.32h97.28c20.48 0 40.96 20.48 40.96 40.96s-20.48 40.96-40.96 40.96h-30.72v184.32h30.72c20.48 0 40.96 20.48 40.96 40.96s-20.48 40.96-40.96 40.96H276.48c-133.12 0-204.8-158.72-138.24-261.12H40.96c-20.48 0-40.96-20.48-40.96-40.96s20.48-40.96 40.96-40.96h30.72V419.84H40.96c-20.48 0-40.96-20.48-40.96-40.96s20.48-40.96 40.96-40.96h97.28c-66.56-102.4 5.12-261.12 138.24-261.12h706.56c20.48 0 40.96 20.48 40.96 40.96s-20.48 40.96-40.96 40.96h-30.72z m-204.8 261.12H117.76v184.32h629.76c20.48 0 46.08-15.36 61.44-25.6 30.72-40.96 30.72-97.28 0-133.12-20.48-10.24-40.96-25.6-61.44-25.6z m158.72 261.12H276.48c-20.48 0-46.08 15.36-61.44 25.6-51.2 51.2-20.48 158.72 61.44 158.72h629.76v-184.32z m0-337.92V158.72H276.48c-76.8 0-107.52 107.52-61.44 158.72 15.36 15.36 30.72 25.6 61.44 25.6h629.76z"
        fill="#1296db" p-id="14548"></path>
</svg>