<svg t="1717763990889" class="icon" viewBox="0 0 1024 1024" version="1.1" xmlns="http://www.w3.org/2000/svg" p-id="4876"
    width="200" height="200">
    <path
        d="M471.04 163.84c124.416 0 225.28 100.864 225.28 225.28 0 81.87904-43.68384 153.55904-109.03552 193.00352 28.30336 10.99776 55.64416 26.56256 81.92 46.73536a25.6 25.6 0 1 1-31.1296 40.63232c-46.20288-35.4304-95.4368-54.0672-148.35712-55.9104a210.41152 210.41152 0 0 1-28.09856 0.6144c-31.47776 2.31424-64.24576 10.30144-98.42688 23.9616-102.4 40.96-158.16704 119.808-169.2672 240.37376a25.6 25.6 0 0 1-50.97472-4.68992c12.8-139.264 80.4864-234.94656 201.23648-283.21792 5.12-2.048 10.17856-3.97312 15.2576-5.77536A225.13664 225.13664 0 0 1 245.76 389.12c0-124.416 100.864-225.28 225.28-225.28z m405.2992 534.3232a25.6 25.6 0 0 1-0.2048 36.18816l-62.52544 61.80864 62.52544 61.82912a25.6 25.6 0 0 1-36.00384 36.39296l-62.91456-62.21824-62.89408 62.21824a25.6 25.6 0 0 1-34.14016 1.67936l-2.048-1.86368a25.6 25.6 0 0 1 0.18432-36.20864l62.50496-61.82912-62.50496-61.80864a25.6 25.6 0 1 1 36.00384-36.39296l62.8736 62.19776 62.93504-62.19776a25.6 25.6 0 0 1 36.18816 0.2048zM471.04 215.04a174.08 174.08 0 0 0-9.91232 347.87328c9.1136-0.6144 18.14528-0.77824 27.09504-0.57344A174.08 174.08 0 0 0 471.04 215.04z"
        fill="#2c2c2c" p-id="4877"></path>
</svg>