<svg t="1718097203900" class="icon" viewBox="0 0 1024 1024" version="1.1" xmlns="http://www.w3.org/2000/svg" p-id="5524"
    width="200" height="200">
    <path
        d="M297.04192 884.24448c-34.95253333 0-62.91456 28.54456889-62.91456 63.49710222s27.96202667 63.49710222 62.91456 63.49710223 62.91456-28.54456889 62.91456-63.49710223-28.54456889-63.49710222-62.91456-63.49710222z m0 0M737.44384 884.24448c-34.95253333 0-62.91456 28.54456889-62.91456 63.49710222s27.96202667 63.49710222 62.91456 63.49710223c34.95253333 0 62.91456-28.54456889 62.91456-63.49710223s-28.54456889-63.49710222-62.91456-63.49710222z m0 0M799.77585778 852.7872H288.88632889c-45.43829333 0-85.05116445-36.11761778-90.87658667-82.13845333L144.9984 393.16138667l-30.29219555-176.51029334c-1.74762667-15.14609778-15.72864-27.96202667-29.70965334-27.96202666h-40.19541333c-17.47626667 0-31.45728-13.98101333-31.45728-31.45728 0-17.47626667 13.98101333-31.45728 31.45728-31.45728h40.19541333c46.02083555 0 86.21624889 36.11761778 91.45912889 82.13845333L206.74787555 383.84071111l53.59388445 379.23498667c1.74762667 14.56355555 15.14609778 26.79694222 28.54456889 26.79694222h510.88952889c17.47626667 0 31.45728 13.98101333 31.45728 31.45728 0 17.47626667-13.98101333 31.45728-31.45728 31.45728z m0 0"
        p-id="5525" fill="#515151"></path>
    <path
        d="M449.66798222 283.64344889H265.00209778c-17.47626667 0-31.45728-13.98101333-31.45728-31.45728 0-17.47626667 13.98101333-31.45728 31.45728-31.45728h193.40401777M858.03008 551.03032889l-12.81592889 62.91456c-5.24288 44.27320889-45.43829333 80.39082667-90.29404444 80.39082666l-424.09073778 31.45728h-2.33016889c-16.31118222 0-30.29219555-12.81592889-31.45728-29.1271111-1.16508445-17.47626667 11.65084445-32.62236445 29.12711111-33.7874489l426.42090667-31.45728c15.72864 0 29.12711111-12.23338667 30.87473777-26.79694222l11.06830223-37.86524444M740.93909333 552.19541333c148.54826667 0 269.71704889-120.58624 269.71704889-269.71704888 0-148.54826667-120.58624-269.71704889-269.71704889-269.7170489C592.39082667 12.76131555 471.22204445 133.34755555 471.22204445 282.47836445c0.58254222 149.13080889 121.16878222 269.71704889 269.71704888 269.71704888z m2.33016889-475.35445333c115.34336 0 209.13265778 93.78929778 209.13265778 209.13265778 0 115.34336-93.78929778 209.13265778-209.13265778 209.13265777-115.34336 0-209.13265778-93.78929778-209.13265777-209.13265777 0-115.34336 93.20675555-209.13265778 209.13265777-209.13265778z m15.72864 362.34126222l95.53692445-95.53692444c8.73813333-8.73813333 8.73813333-22.71914667 0-31.45728-8.73813333-8.73813333-23.30168889-8.73813333-32.03982222 0l-79.22574223 79.22574222-79.22574222-79.22574222c-8.73813333-8.73813333-22.71914667-8.73813333-32.03982222 0-8.73813333 8.73813333-8.73813333 23.30168889 0 32.03982222L727.54062222 439.18222222c8.73813333 8.73813333 22.71914667 8.73813333 31.45728 0z m-40.19541333-111.26556444"
        p-id="5526" fill="#515151"></path>
    <path
        d="M743.26926222 148.49365333c12.23338667 0 22.13660445 9.90321778 22.13660445 22.13660445v226.60892444c0 12.23338667-9.90321778 22.13660445-22.13660445 22.13660445-12.23338667 0-22.13660445-9.90321778-22.13660444-22.13660445V171.2128c-0.58254222-12.23338667 9.90321778-22.71914667 22.13660444-22.71914667z"
        p-id="5527" fill="#515151"></path>
</svg>