<svg t="1717662353917" class="icon" viewBox="0 0 1058 1024" version="1.1" xmlns="http://www.w3.org/2000/svg"
    p-id="10691" width="200" height="200">
    <path
        d="M819.21713 823.366495c-54.722433 0-99.307379 45.014945-99.307379 100.321127 0 55.296182 44.584946 100.311128 99.307379 100.311128 54.733683 0 99.318629-45.014945 99.318628-100.311128-0.14375-55.296182-44.728695-100.321128-99.318628-100.321127z m0 147.76357a47.414942 47.414942 0 0 1-47.441192-47.442443 47.407442 47.407442 0 0 1 47.441192-47.441192 47.409942 47.409942 0 0 1 47.442442 47.441192c-0.04 26.184968-21.256224 47.402442-47.442442 47.442443z m-9.144989-287.0784c-4.853744 0-10.004988-0.14375-15.287481-0.429999l-395.825767 0.429999s-13.578733-7.291241-13.434984-25.722469c0-17.581229 13.147484-26.009968 13.147484-26.009968h414.689494c44.441196-1.719998 71.587413-4.711244 93.314886-34.868707 6.707492-9.287489 11.714986-20.858725 17.284979-35.296207l53.586184-188.18977c6.861242-33.587459-1.853748-46.448693-11.283736-56.873681-14.724982-16.29123-56.013682-16.43498-56.013681-16.43498H346.948956s-12.861234-7.577491-12.861234-26.438718c0-17.572479 12.861234-24.86372 12.861234-24.863719h563.436812c5.427493 0.429999 56.166181-4.289995 92.313638 30.157463 21.574974 20.582475 27.718716 48.291191 24.28872 78.734904-1.996248 17.714978-59.012428 236.922211-84.018647 271.359668-22.867472 31.723711-55.021183 54.446184-132.897338 54.446184z m-463.123185 100.023628c-44.727445 0-58.306179-10.719987-71.741162-27.287467-17.571229-21.872473-19.864976-50.309939-22.854972-63.448672L162.752931 261.212181c-1.997498-12.431235-15.872481-30.147463-27.863716-37.007455-20.008726-11.284986-103.607374-6.573742-120.176103-7.57749 0 0-10.291237-8.14124-10.291238-24.71997 0-19.004977 10.003738-25.722469 10.003738-25.722469 6.431242-0.563749 16.43498-0.563749 51.016188-0.849999 49.43869-0.14375 79.452403 0 110.316115 21.432474 33.432459 23.296222 35.716206 57.01618 40.437451 86.599894l90.879889 430.693225 1.003749 4.711244c1.852498 5.427493 3.992495 9.861238 10.291237 15.432481 7.423741 6.573742 15.287481 8.29374 22.711222 8.56999h1.433749l583.300538-0.1425v51.158687H352.806449a76.966156 76.966156 0 0 1-5.857493 0.285z m99.307379 39.291202c-54.722433 0-99.307379 45.014945-99.307379 100.321127 0 55.296182 44.584946 100.311128 99.307379 100.311128 54.733683 0 99.318629-45.014945 99.318629-100.311128-0.14375-55.296182-44.584946-100.321128-99.318629-100.321127z m0 147.76357a47.414942 47.414942 0 0 1-47.441192-47.442443 47.407442 47.407442 0 0 1 47.441192-47.441192c26.184968 0.03875 47.402442 21.256224 47.442442 47.441192-0.04 26.184968-21.257474 47.402442-47.442442 47.442443z m17.152479-808.509014l-40.86745-101.313626c-4.532494-11.367486 0.953749-24.26247 12.287485-28.877465l6.431242-2.559996c11.363736-4.526244 24.25122 0.959999 28.866215 12.287485l40.85745 101.314876c4.518744 11.361236-0.964999 24.24122-12.287485 28.856215l-6.421242 2.581246c-11.366236 4.532494-24.26122-0.954999-28.876215-12.288735h0.01z m389.529525 0l40.8762-101.313626c4.532494-11.367486-0.953749-24.26247-12.287485-28.877465l-6.431242-2.559996c-11.366236-4.531244-24.26122 0.954999-28.876215 12.287485l-40.8587 101.314876c-4.519994 11.361236 0.964999 24.24122 12.287485 28.856215l6.287492 2.581246c11.403736 4.553744 24.34747-0.928749 29.009965-12.288735h-0.0075zM636.311103 131.46109V22.148723c0-12.143735 10.004988-22.148723 22.149973-22.148723h6.859992c12.144985 0 22.149973 10.004988 22.149973 22.148723v109.312367c-0.0625 12.206235-9.942488 22.087473-22.149973 22.148722h-6.859992c-12.207485-0.06125-22.088723-9.942488-22.149973-22.148722z"
        fill="#707070" p-id="10692"></path>
</svg>