<svg t="1717589185810" class="icon" viewBox="0 0 1239 1024" version="1.1" xmlns="http://www.w3.org/2000/svg" p-id="8679"
    width="20" height="20">
    <path
        d="M261.281684 700.146526c-88.333474 0-157.803789 63.811368-157.803789 144.653474 0 78.470737 69.632 144.653474 157.803789 144.653474 88.387368 0 157.803789-63.811368 157.80379-144.653474 0-81.003789-72.165053-144.653474-157.80379-144.653474z m500.304842 144.653474c0 79.925895 70.709895 144.653474 157.80379 144.653474 87.201684 0 157.803789-64.835368 157.803789-144.653474 0-79.979789-70.763789-144.653474-157.803789-144.653474-87.093895 0-157.803789 64.673684-157.80379 144.653474z m473.573053-358.076632l-5.281684-9.862736-8.030316-14.659369-125.790316-242.795789-45.433263-75.991579h-184.697263V57.613474c0-39.181474-18.701474-56.481684-61.601684-56.481685L4.419368 28.025263v672.067369c0 26.947368 16.006737 49.044211 37.456843 61.33221 37.456842-73.674105 120.346947-122.664421 214.123789-122.664421 99.112421 0 173.972211 49.044211 211.429053 127.514947h245.975579c34.762105-78.524632 107.088842-125.143579 203.398736-125.143579 96.363789 0 160.552421 46.618947 195.260632 125.143579h61.601684c42.900211 0 58.906947-24.522105 58.906948-63.811368V499.011368c0-4.958316 0-7.329684 2.586947-12.288zM836.446316 425.391158V226.735158h155.216842l61.601684 198.656h-216.818526z"
        fill="#2c2c2c" p-id="8680"></path>
</svg>