<svg t="1717655626014" class="icon" viewBox="0 0 1024 1024" version="1.1" xmlns="http://www.w3.org/2000/svg" p-id="6494"
    width="200" height="200">
    <path
        d="M417.8 421.6c7.6-5.5 8.5-12.3 2.2-16.4-6.3-3.6-17.5-2.7-24.7 2.7-7.6 5-8.5 12.3-2.2 16.4 6.2 3.6 17.5 2.7 24.7-2.7"
        fill="#FFFFFF" p-id="6495"></path>
    <path
        d="M239.6 229.3h224c31 0 50.8 25.9 43.2 57.2L402.4 738.1c-7.2 31.8-38.7 57.2-69.7 57.2h-224c-31 0-50.8-25.9-43.2-57.2l104.3-451.6c7.3-31.3 38.3-57.2 69.8-57.2"
        fill="#E03333" p-id="6496"></path>
    <path
        d="M444.7 229.3h257.2c31 0 17.1 25.9 9.9 57.2L607.5 738.1c-7.2 31.8-4.9 57.2-36.4 57.2H313.8c-31.5 0-50.8-25.9-43.2-57.2L375 286.5c7.1-31.3 38.2-57.2 69.7-57.2"
        fill="#004889" p-id="6497"></path>
    <path
        d="M691.6 229.3h223.5c31.5 0 50.8 25.9 43.2 57.2L853.9 738.1c-7.2 31.8-38.7 57.2-69.7 57.2H560.7c-31.5 0-50.8-25.9-43.2-57.2l104.3-451.6c7.2-31.3 38.7-57.2 69.8-57.2"
        fill="#008089" p-id="6498"></path>
    <path
        d="M654.2 639.1h21.1l6.3-20.4h-21.1l-6.3 20.4z m17.1-56.8l-7.2 24.1s8.1-4.1 12.1-5.5c4.5-0.9 10.8-1.8 10.8-1.8l4.9-16.8h-20.6z m10.4-34.5l-7.2 23.2s7.6-3.6 12.1-4.5c4.5-1.3 10.8-1.3 10.8-1.3l4.9-16.8-20.6-0.6z m46.7 0L701 639.1h7.2l-5.8 18.6h-7.2l-1.8 5.9h-26.1l1.8-5.9h-52.6l5.4-17.3h5.4l27.9-92.7 5.4-18.6h26.5l-2.7 9.6s7.2-5 13.9-6.8 45-2.3 45-2.3l-5.8 18.6-9.1-0.4z"
        fill="#FFFFFF" p-id="6499"></path>
    <path
        d="M740.1 529.1h28.3l0.4 10.5c0 1.8 1.3 2.7 4.5 2.7h5.8l-5.4 17.7h-15.3c-13 0.9-18.4-5-18-11.3l-0.3-19.6z m3.6 83.2h-27l4.5-15.4h30.6l4.5-14.1h-30.6l5.4-17.7h84.5l-5.4 17.7h-28.3l-4.5 14.1h28.3l-4.5 15.4h-30.6l-5.4 6.4h12.6l3.1 19.5c0.4 1.8 0.4 3.2 0.9 4.1s4.5 0.9 6.7 0.9h3.6l-5.8 20H777c-1.3 0-3.6 0-6.7-0.4-2.7-0.5-4.9-1.8-6.7-2.7-2.7-1.3-4.5-3.9-4.9-6.8l-3.1-19.5-13.9 19.5c-4.5 5.9-10.3 10.9-20.7 10.9h-20l4.9-17.3h7.6c1.9 0 3.8-0.7 5.4-1.8 1.3-0.4 2.7-1.3 4-3.6l20.8-29.2z m-295-42.7h71.5l-5.4 17.3h-28.3l-4.5 14.5h29.2l-5.4 17.7h-29.2l-7.2 23.6c-0.9 2.7 6.7 3.2 9.9 3.2l14.4-1.8-5.8 19.5H455c-2.7 0-4.5-0.4-7.6-0.9-2.7-0.9-4-1.8-5.4-4.1-1.3-1.8-3.1-3.6-1.8-7.7l9.4-31.8h-16.2l5.4-18.2H455l4.5-14.5h-16.2l5.4-16.8z m48.1-30.9H526l-5.4 18.2h-40l-4.5 3.6c-1.8 1.8-2.7 0.9-4.9 2.2-2.2 1.4-7.2 3.6-13 3.6h-12.6L451 549h4c3.1 0 5.4-0.4 6.7-0.9 1.3-0.9 2.7-2.7 4.5-5.5l7.2-13.6h29.2l-5.8 9.7z m56.2 29.5s8.1-7.3 21.6-9.5c3.1-0.5 22.5-0.5 22.5-0.5l3.1-10h-41.4l-5.8 20z m38.7 7.7h-40.9l-2.7 8.2h35.5c4-0.5 4.9 0 5.4 0l2.7-8.2z m-53-46.8h24.7l-3.6 12.7s8.1-6.4 13.5-8.6c5.4-2.3 18-4.1 18-4.1h40.5l-13.5 46.3c-2.2 7.7-4.9 13.2-6.7 15.5-1.5 2.8-3.9 5-6.7 6.4-2.9 1.6-6.1 2.7-9.4 3.2-2.7 0-6.7 0.4-12.6 0.4h-39.1L533 637.3c-0.9 3.6-1.3 5.4-0.9 6.4 0.4 0.9 1.8 1.8 3.6 1.8l17.1-1.8-5.8 20h-19.3c-6.3 0-10.3 0-13.5-0.4-3.1 0-5.8 0-8.1-1.8-1.8-1.8-4.5-3.6-4.5-5.9 0-1.8 0.9-5.4 2.2-10l34.9-116.5z"
        fill="#FFFFFF" p-id="6500"></path>
    <path
        d="M611.1 603.6l-2.2 10.9c-0.9 3.6-1.8 5.9-4.5 8.2s-5.8 5-13.5 5l-13.9 0.4v12.7c0 3.6 0.9 3.2 1.3 3.6 0.5 0.5 1.1 0.8 1.8 0.9h4.5l13-0.9-5.4 18.2h-15.3c-10.8 0-18.4 0-21.1-2.3-2.7-1.8-2.7-3.6-2.7-7.3l0.9-49.1h24.3l-0.4 10h5.8c1.8 0 3.1 0 4-0.9 0.9-0.4 1.3-1.3 1.8-2.7l2.2-7.7 19.4 1z m-345-229.8c-0.9 4.1-16.2 76.3-16.6 76.3-3.1 14.6-5.8 25-13.9 31.8-4.5 4.1-10.3 5.9-16.6 5.9-10.3 0-16.2-5-17.1-15v-3.2L205 450s16.2-65.9 19.3-74.5c0-0.4 0-0.9 0.4-0.9-31.9 0.4-37.3 0-37.8-0.4 0 0.4-0.9 4.5-0.9 4.5l-16.6 74.5-1.3 6.4-2.7 20.4c0 5.9 1.3 10.9 3.6 15.5 7.6 13.6 29.2 15.4 41.4 15.4 15.7 0 30.6-3.6 40.5-9.5 17.5-10.5 22-26.8 26.1-40.9l1.8-7.3s16.6-68.6 19.8-77.2c0-0.4 0-0.9 0.4-0.9-24.3-0.4-31.1-0.8-32.9-1.3z m92.7 136.3c-11.2 0-15.3 0-28.3 0.4l-0.4-0.9c1.3-5 2.2-10 3.6-15l1.8-6.8c2.2-10.9 4.9-23.2 4.9-27.3 0.4-2.3 0.9-8.2-5.4-8.2-2.7 0-5.4 1.4-8.5 2.7-1.8 5.9-4.9 21.8-6.3 29.1-3.1 15.5-3.6 17.3-4.9 25l-0.9 0.9c-11.7 0-15.7 0-28.8 0.4l-0.4-0.9c2.2-9.1 4.5-18.2 6.7-27.7 5.4-25 6.7-34.5 8.5-47.2l0.9-0.9c13-1.8 16.2-2.3 30.1-5l1.3 1.4-2.2 7.7c2.2-1.3 4.5-2.7 7.2-4.1 5.6-2.6 11.8-4 18-4.1 6.3 0 13 1.8 15.7 9.1 2.7 6.4 0.9 14.5-2.7 30l-1.8 7.7c-3.6 17.3-4 20.5-6.3 32.3l-1.8 1.4z m45.8-15.9h-15.3c-4 0-8.5 0.4-14.8 0.4l-0.4-0.4-0.4-0.5c1.8-6.4 2.7-9.1 3.6-11.3 0.9-2.3 1.8-4.6 3.1-11.3 1.8-8.7 3.1-14.6 4-20 0.9-5 1.3-9.6 2.2-14.6l0.4-0.4 0.4-0.5c6.7-0.9 11.2-1.8 15.3-2.3 4.5-0.4 9-1.3 15.7-2.7l0.4 0.4v0.5l-4 16.3c-1.3 5.5-2.7 10.9-3.6 16.4-2.7 11.3-3.6 15.9-4 18.6-0.4 2.7-0.9 4.5-1.8 10.5l-0.4 0.4-0.4 0.5z m71.5-40c-0.4 2.7-3.1 14.1-6.7 18.6-2.2 3.2-5.4 5.5-8.5 5.5-0.9 0-6.3 0-6.7-8.2 0-4.1 0.9-8.2 1.8-12.7 3.1-13.2 6.3-24.5 15.3-24.5 7.5-0.5 8 7.7 4.8 21.3z m29.3 0.9c4-17.7 0.9-25.4-3.1-30.5-5.8-7.7-16.2-10-27-10-6.3 0-21.6 0.4-33.7 11.8-8.5 8.2-12.6 19.1-14.8 29.6-2.2 10.4-5.4 30 12.1 37.2 5.4 2.3 13 3.2 18.4 3.2 13 0 26.1-3.6 36-14.1 7.6-9 11.2-21.7 12.1-27.2z m292.7-39.5c-13.9 2.7-18 3.2-31.5 5l-0.9 0.9c0 0.9-0.4 2.3-0.4 3.2-2.2-3.8-5.7-6.8-9.9-8.2-5.8-2.3-20.2 0.9-32.4 11.8-8.5 8.2-12.6 19.1-14.8 29.5-2.2 10.5-5.4 30 12.1 36.8 5.4 2.3 10.8 3.2 15.7 2.7 5.4-0.5 10.3-3.2 14.8-6.8-0.4 1.4-0.9 3.2-1.3 4.6l0.9 0.9c12.6-0.4 16.6-0.4 30.1-0.4l1.3-0.9c1.8-11.8 4-23.2 9-45.9 2.2-10.9 4.9-21.4 7.6-32.3l-0.3-0.9z m-44.5 58.6c-2.2 3.2-7.6 5.4-10.8 5.4-0.9 0-6.3 0-6.7-8.2 0-4.1 0.9-8.2 1.8-12.7 3.1-12.7 6.3-24.1 15.3-24.1 5.8 0 8.5 5.5 8.1 14.5-0.4 2.5-1 4.9-1.8 7.3-0.9 4.1-1.8 7.7-2.7 11.8-0.9 1.9-1.8 4.2-3.2 6z m-171.3 35.9c-11.2 0-15.3 0-28.3 0.4l-0.4-0.9c0.9-5 2.2-10 3.6-15l1.3-6.8c2.2-10.9 4.9-23.2 4.9-27.3 0-2.3 0.9-8.2-5.4-8.2-2.7 0-5.4 1.4-8.5 2.7-1.8 5.9-4.9 21.8-6.3 29.1-3.1 15.5-3.6 17.3-4.9 25l-0.9 0.9c-11.7 0-15.7 0-28.8 0.4l-0.4-0.9c2.2-9.1 4.5-18.2 6.7-27.7 5.4-25 6.7-34.5 8.5-47.2l0.9-0.9c13-1.8 16.2-2.3 30.1-5l0.9 1.4-2.2 7.7c2.2-1.3 4.5-2.7 7.2-4.1 5.6-2.6 11.8-4 18-4.1 6.3 0 13 1.8 15.7 9.1 2.7 6.4 0.9 14.5-2.7 30l-1.8 7.7c-3.6 17.3-4 20.5-6.3 32.3 0.9 0-0.9 1.4-0.9 1.4z"
        fill="#FFFFFF" p-id="6501"></path>
    <path
        d="M723.5 385.1c-8.1-10.9-24.3-11.3-43.6-11.3h-9.4c-24.3 0.5-34.2 0-38.2-0.4-0.4 1.8-0.9 5-0.9 5l-8.5 40.9-22 90.9c21.1-0.5 30.1-0.5 33.7 0 0.9-4.1 5.8-28.2 5.8-28.2s4-17.7 4.5-18.6c0 0 1.3-1.8 2.7-2.7h1.8c18.4 0 39.1 0 55.3-12.3 10.8-8.2 18.4-20.4 22-35.4 0.9-3.6 1.3-8.2 1.3-12.3 0-6-1.4-11.5-4.5-15.6zM692 416c-1.8 9.1-7.6 16.8-15.3 20.5-6.3 3.2-13.9 3.2-21.6 3.2h-4.9l0.4-2.3s9.4-40.9 9.4-40.4v-4.1l3.6 0.4 19.8 1.8c7.7 3.7 10.9 11.4 8.6 20.9zM891.7 415.1l-0.9-1.4c-13.9 2.7-16.2 3.2-29.2 5l-0.9 0.9v0.4c-9.4 22.3-9 17.3-17.1 35v-2.3l-1.8-37.7-1.3-1.4c-14.4 2.7-14.8 3.2-28.3 5l-0.9 0.9v1.4c1.8 8.6 1.3 6.8 3.1 20.4 0.9 6.8 1.8 13.6 2.7 20 1.3 10.9 2.2 16.8 3.6 33.6-9 15-11.2 20.9-19.8 34l-6.3 10c-0.9 0.9-1.3 1.8-2.2 1.8-0.9 0.4-2.2 0.4-4 0.4h-3.6l-4.9 17.3 17.5 0.4c10.3 0 16.6-5 20.2-11.3l10.8-19.1 1.3-1.4c6.2-14.7 62-111.9 62-111.9"
        fill="#FFFFFF" p-id="6502"></path>
</svg>