<svg t="1717586662695" class="icon" viewBox="0 0 1024 1024" version="1.1" xmlns="http://www.w3.org/2000/svg" p-id="4395"
    width="200" height="200">
    <path
        d="M812.8 264.8c10.4 0 19.2 8.8 19.2 19.2v521.6c0 10.4-8.8 19.2-19.2 19.2H211.2c-10.4 0-19.2-8.8-19.2-19.2V284c0-10.4 8.8-19.2 19.2-19.2h601.6m0-80H211.2c-54.4 0-99.2 44.8-99.2 99.2v521.6c0 54.4 44.8 99.2 99.2 99.2h601.6c54.4 0 99.2-44.8 99.2-99.2V284c0-54.4-44.8-99.2-99.2-99.2z"
        fill="#2c2c2c" p-id="4396"></path>
    <path d="M416 287.2c-35.2 0-64-28.8-64-64s28.8-64 64-64h192c35.2 0 64 28.8 64 64s-28.8 64-64 64H416z" fill="#2c2c2c"
        p-id="4397"></path>
    <path
        d="M608 199.2c13.6 0 24 11.2 24 24s-10.4 24-24 24H416c-13.6 0-24-11.2-24-24s10.4-24 24-24h192m0-80H416c-57.6 0-104 46.4-104 104s46.4 104 104 104h192c57.6 0 104-46.4 104-104s-46.4-104-104-104z"
        fill="#2c2c2c" p-id="4398"></path>
    <path
        d="M470.4 656.8c-9.6 0-19.2-3.2-26.4-10.4L325.6 540c-16.8-14.4-17.6-40-3.2-56.8 14.4-16.8 40-17.6 56.8-3.2l91.2 82.4 174.4-159.2c16-15.2 41.6-13.6 56.8 2.4 15.2 16 13.6 41.6-2.4 56.8l-201.6 184c-8 7.2-17.6 10.4-27.2 10.4z"
        fill="#2c2c2c" p-id="4399"></path>
</svg>