<svg t="1718794008221" class="icon" viewBox="0 0 1024 1024" version="1.1" xmlns="http://www.w3.org/2000/svg" p-id="4446"
    width="200" height="200">
    <path
        d="M641.36 139.12c-209.64 3.24-376.96 175.81-373.72 385.45 3.16 205.08 168.65 370.56 373.72 373.72 209.64-3.24 376.96-175.81 373.72-385.45-3.16-205.07-168.64-370.55-373.72-373.72z m98.52 438.06c18.17 0 32.85 9.81 32.85 21.91s-14.69 21.96-32.85 21.96h-69.41v74.65c0 15.09-9.86 27.43-21.96 27.43s-21.91-12.2-21.91-27.43v-74.65h-83.73c-18.17 0-32.85-9.85-32.85-21.96 0-12.11 14.69-21.91 32.85-21.91h83.73v-43.7h-83.73c-18.17 0-32.85-9.81-32.85-21.96 0-12.11 14.69-21.91 32.85-21.91h83.73v-17.49c-4.82-2.24-9.2-5.33-12.92-9.13l-91.51-91.96c-12.52-12.52-15.81-29.37-7.46-37.74 8.36-8.31 25.26-4.97 37.65 7.55l91.56 91.96 0.99 0.99c1.08-1.36 2.26-2.71 3.62-3.98l80.88-80.88c12.78-12.83 30.19-16.31 38.73-7.77 8.54 8.54 5.15 25.89-7.77 38.73l-80.88 80.88c-2.77 2.8-5.89 5.24-9.27 7.27 0.3 1.7 0.45 3.42 0.45 5.15v16.4h69.27c18.17 0 32.85 9.81 32.85 21.91 0 12.16-14.69 21.96-32.85 21.96h-69.41v43.7h69.41l-0.06 0.02z m-526.81-297.2l0.95 0.45c20.67 8.99 30.13 33.02 21.15 53.68a426.642 426.642 0 0 0-35.06 170.81 430.403 430.403 0 0 0 37.15 175.42l3.16 3.16c16.37 17.84 15.18 45.57-2.65 61.93-16.75 15.38-42.49 15.39-59.26 0.02L20.38 587.39c-16.35-17.85-15.14-45.58 2.7-61.93 16.76-15.36 42.49-15.35 59.25 0.02l38.41 38.45a523.471 523.471 0 0 1-3.34-58.97c0-71.08 14.1-139.68 41.89-203.71 8.96-20.71 33.01-30.23 53.71-21.27l0.06 0.03v-0.03z"
        fill="#8A8A8A" p-id="4447"></path>
</svg>