<svg t="1717661625090" class="icon" viewBox="0 0 1024 1024" version="1.1" xmlns="http://www.w3.org/2000/svg" p-id="9273"
    width="200" height="200">
    <path
        d="M845.426152 250.340546c0-81.881468-53.222954-125.23048-120.895578-125.23048H295.495767C237.215428 125.110066 174.600188 168.940734 174.600188 270.088429v526.208843c0 76.944497 77.426152 106.084666 120.895579 106.084666h153.888993c14.329257 0 24.203198-14.329257 24.203199-29.140169S463.593603 844.101599 449.264346 844.101599H299.830668c-19.266228 0-72.489182 0-72.489182-77.426152V274.543744c4.936971-63.096896 39.014111-96.69238 72.489182-96.69238h419.762935c24.203198 0 72.489182 24.203198 72.489182 77.426152v173.636877c0 1.204139 0.120414 2.408278 0.240827 3.492004 0 14.570085 11.920978 26.370649 26.491063 26.370649s26.491063-11.920978 26.491063-26.491063v-1.444967c0-0.60207 0.120414-1.324553 0.120414-1.926623V250.340546z"
        fill="#707070" p-id="9274"></path>
    <path
        d="M488.278457 564.018815H343.300094c-14.329257 0-23.721543 9.873942-24.203198 24.203198 0 14.329257 9.873942 24.203198 24.203198 24.203199h144.978363c14.329257 0 24.203198-9.873942 24.203199-24.203199 0-14.329257-9.873942-24.203198-24.203199-24.203198zM343.300094 467.80809h337.881468c14.329257 0 24.203198-9.873942 24.203198-24.203198s-9.873942-24.203198-24.203198-24.203199H343.300094c-14.329257 0-23.721543 9.392286-24.203198 24.203199 0 14.329257 9.873942 24.203198 24.203198 24.203198zM681.181562 322.829727c14.329257 0 24.203198-9.873942 24.203198-24.203198 0-14.329257-9.873942-24.203198-24.203198-24.203199H343.300094c-14.329257 0-23.721543 9.873942-24.203198 24.203199 0 14.329257 9.873942 24.203198 24.203198 24.203198h337.881468zM835.552211 593.158984L747.770461 521.151458c-10.355597-8.428975-26.129821-6.863594-35.040452 3.97366L548.485419 725.253057c-3.492004 4.455315-5.900282 9.873942-5.900283 15.774224l-0.481655 90.310442c0 15.774224 14.810913 28.056444 30.10348 24.684855l88.263406-18.302917c5.900282-0.963311 10.837253-4.455315 14.329257-8.91063L839.044214 628.560677c8.790216-10.837253 7.345249-26.611477-3.492003-35.401693zM769.444967 642.408278l-114.874882 140.041393c-3.010348 2.408278-5.900282 4.936971-9.873942 6.863593l-18.784572 7.947319c-18.302916 7.345249-37.44873-7.947319-34.558796-27.093132l3.010348-21.192851c0.481656-4.455315 2.408278-8.91063 5.418627-12.28222l114.393226-139.559737c8.91063-10.837253 24.684854-12.28222 35.522108-3.492003l16.255879 13.365945c10.837253 8.790216 12.402634 24.56444 3.492004 35.401693z"
        fill="#707070" p-id="9275"></path>
</svg>